<svg xmlns="http://www.w3.org/2000/svg" version="1.1" viewBox="348.1104 243.7149 561.792 767.448" style="max-height: 500px" width="561.792" height="767.448">
<path transform="translate(461,259)" fill="#000000" d="M0,0 L378,0 L378,1 L384,1 L384,2 L387,2 L387,3 L391,3 L391,4 L393,4 L393,5 L395,5 L395,6 L397,6 L397,7 L399,7 L399,8 L401,8 L401,9 L402,9 L402,10 L404,10 L404,11 L405,11 L405,12 L407,12 L407,13 L408,13 L408,14 L409,14 L409,15 L410,15 L410,16 L411,16 L411,17 L412,17 L412,18 L413,18 L413,19 L414,19 L414,20 L415,20 L415,21 L416,21 L416,22 L417,22 L417,24 L418,24 L418,25 L419,25 L419,26 L420,26 L420,28 L421,28 L421,30 L422,30 L422,32 L423,32 L423,33 L424,33 L424,36 L425,36 L425,38 L426,38 L426,42 L427,42 L427,46 L428,46 L428,53 L429,53 L429,511 L428,511 L428,517 L427,517 L427,521 L426,521 L426,523 L425,523 L425,526 L424,526 L424,528 L423,528 L423,529 L422,529 L422,531 L421,531 L421,532 L420,532 L420,534 L419,534 L419,535 L418,535 L418,536 L417,536 L417,537 L416,537 L416,538 L415,538 L415,539 L414,539 L414,540 L413,540 L413,541 L412,541 L412,542 L411,542 L411,544 L410,544 L410,545 L409,545 L409,546 L408,546 L408,548 L407,548 L407,550 L406,550 L406,552 L405,552 L405,556 L404,556 L404,560 L403,560 L403,633 L402,633 L402,636 L401,636 L401,639 L400,639 L400,641 L399,641 L399,643 L398,643 L398,645 L397,645 L397,646 L396,646 L396,648 L395,648 L395,649 L394,649 L394,650 L393,650 L393,651 L392,651 L392,652 L390,652 L390,653 L389,653 L389,654 L387,654 L387,655 L386,655 L386,656 L383,656 L383,657 L381,657 L381,658 L377,658 L377,659 L133,659 L133,658 L105,658 L105,663 L104,663 L104,736 L103,736 L103,735 L102,735 L102,734 L101,734 L101,733 L100,733 L100,732 L99,732 L99,731 L97,731 L97,730 L96,730 L96,729 L95,729 L95,728 L94,728 L94,727 L93,727 L93,726 L91,726 L91,725 L90,725 L90,724 L89,724 L89,723 L88,723 L88,722 L87,722 L87,721 L86,721 L86,720 L84,720 L84,719 L83,719 L83,718 L82,718 L82,717 L81,717 L81,716 L80,716 L80,715 L79,715 L79,714 L77,714 L77,713 L76,713 L76,712 L75,712 L75,711 L74,711 L74,710 L73,710 L73,709 L72,709 L72,708 L71,708 L71,707 L70,707 L70,706 L68,706 L68,705 L67,705 L67,704 L65,704 L65,705 L64,705 L64,706 L63,706 L63,707 L62,707 L62,708 L60,708 L60,709 L59,709 L59,710 L58,710 L58,711 L57,711 L57,712 L56,712 L56,713 L55,713 L55,714 L53,714 L53,715 L52,715 L52,716 L51,716 L51,717 L50,717 L50,718 L49,718 L49,719 L48,719 L48,720 L46,720 L46,721 L45,721 L45,722 L44,722 L44,723 L43,723 L43,724 L42,724 L42,725 L40,725 L40,726 L39,726 L39,727 L38,727 L38,728 L37,728 L37,729 L36,729 L36,730 L35,730 L35,731 L33,731 L33,732 L32,732 L32,733 L31,733 L31,734 L30,734 L30,735 L29,735 L29,736 L28,736 L28,658 L27,658 L27,657 L14,657 L14,656 L-6,656 L-6,655 L-34,655 L-34,654 L-40,654 L-40,653 L-44,653 L-44,652 L-48,652 L-48,651 L-51,651 L-51,650 L-53,650 L-53,649 L-55,649 L-55,648 L-57,648 L-57,647 L-59,647 L-59,646 L-60,646 L-60,645 L-62,645 L-62,644 L-63,644 L-63,643 L-65,643 L-65,642 L-66,642 L-66,641 L-68,641 L-68,640 L-69,640 L-69,639 L-70,639 L-70,638 L-71,638 L-71,637 L-72,637 L-72,636 L-73,636 L-73,635 L-74,635 L-74,634 L-75,634 L-75,633 L-76,633 L-76,632 L-77,632 L-77,631 L-78,631 L-78,630 L-79,630 L-79,629 L-80,629 L-80,627 L-81,627 L-81,626 L-82,626 L-82,625 L-83,625 L-83,623 L-84,623 L-84,622 L-85,622 L-85,620 L-86,620 L-86,618 L-87,618 L-87,616 L-88,616 L-88,614 L-89,614 L-89,612 L-90,612 L-90,610 L-91,610 L-91,607 L-92,607 L-92,604 L-93,604 L-93,601 L-94,601 L-94,597 L-95,597 L-95,592 L-96,592 L-96,583 L-97,583 L-97,98 L-96,98 L-96,91 L-95,91 L-95,85 L-94,85 L-94,81 L-93,81 L-93,77 L-92,77 L-92,74 L-91,74 L-91,71 L-90,71 L-90,69 L-89,69 L-89,66 L-88,66 L-88,64 L-87,64 L-87,62 L-86,62 L-86,60 L-85,60 L-85,58 L-84,58 L-84,56 L-83,56 L-83,54 L-82,54 L-82,53 L-81,53 L-81,51 L-80,51 L-80,49 L-79,49 L-79,48 L-78,48 L-78,46 L-77,46 L-77,45 L-76,45 L-76,44 L-75,44 L-75,42 L-74,42 L-74,41 L-73,41 L-73,40 L-72,40 L-72,39 L-71,39 L-71,37 L-70,37 L-70,36 L-69,36 L-69,35 L-68,35 L-68,34 L-67,34 L-67,33 L-66,33 L-66,32 L-65,32 L-65,31 L-64,31 L-64,30 L-63,30 L-63,29 L-62,29 L-62,28 L-61,28 L-61,27 L-59,27 L-59,26 L-58,26 L-58,25 L-57,25 L-57,24 L-56,24 L-56,23 L-55,23 L-55,22 L-53,22 L-53,21 L-52,21 L-52,20 L-50,20 L-50,19 L-49,19 L-49,18 L-48,18 L-48,17 L-46,17 L-46,16 L-44,16 L-44,15 L-42,15 L-42,14 L-41,14 L-41,13 L-39,13 L-39,12 L-37,12 L-37,11 L-35,11 L-35,10 L-33,10 L-33,9 L-31,9 L-31,8 L-28,8 L-28,7 L-26,7 L-26,6 L-23,6 L-23,5 L-20,5 L-20,4 L-17,4 L-17,3 L-12,3 L-12,2 L-7,2 L-7,1 L0,1 Z M-10,37 L-10,38 L-15,38 L-15,39 L-18,39 L-18,40 L-21,40 L-21,41 L-23,41 L-23,42 L-25,42 L-25,43 L-27,43 L-27,44 L-29,44 L-29,45 L-31,45 L-31,46 L-32,46 L-32,47 L-34,47 L-34,48 L-35,48 L-35,49 L-36,49 L-36,50 L-38,50 L-38,51 L-39,51 L-39,52 L-40,52 L-40,53 L-41,53 L-41,54 L-42,54 L-42,55 L-43,55 L-43,56 L-44,56 L-44,58 L-45,58 L-45,59 L-46,59 L-46,60 L-47,60 L-47,61 L-48,61 L-48,63 L-49,63 L-49,65 L-50,65 L-50,66 L-51,66 L-51,68 L-52,68 L-52,70 L-53,70 L-53,72 L-54,72 L-54,74 L-55,74 L-55,78 L-56,78 L-56,81 L-57,81 L-57,85 L-58,85 L-58,524 L-57,524 L-57,523 L-56,523 L-56,522 L-54,522 L-54,521 L-52,521 L-52,520 L-50,520 L-50,519 L-48,519 L-48,518 L-45,518 L-45,517 L-42,517 L-42,516 L-39,516 L-39,515 L-33,515 L-33,514 L373,514 L373,513 L378,513 L378,512 L381,512 L381,511 L383,511 L383,510 L384,510 L384,509 L386,509 L386,508 L387,508 L387,507 L388,507 L388,505 L389,505 L389,504 L390,504 L390,502 L391,502 L391,499 L392,499 L392,495 L393,495 L393,57 L392,57 L392,52 L391,52 L391,49 L390,49 L390,47 L389,47 L389,45 L388,45 L388,44 L387,44 L387,43 L386,43 L386,42 L385,42 L385,41 L384,41 L384,40 L382,40 L382,39 L380,39 L380,38 L377,38 L377,37 Z M-29,549 L-29,550 L-33,550 L-33,551 L-36,551 L-36,552 L-38,552 L-38,553 L-40,553 L-40,554 L-42,554 L-42,555 L-44,555 L-44,556 L-45,556 L-45,557 L-46,557 L-46,558 L-48,558 L-48,559 L-49,559 L-49,560 L-50,560 L-50,561 L-51,561 L-51,563 L-52,563 L-52,564 L-53,564 L-53,565 L-54,565 L-54,566 L-55,566 L-55,568 L-56,568 L-56,570 L-57,570 L-57,572 L-58,572 L-58,575 L-59,575 L-59,579 L-60,579 L-60,595 L-59,595 L-59,598 L-58,598 L-58,601 L-57,601 L-57,603 L-56,603 L-56,605 L-55,605 L-55,607 L-54,607 L-54,608 L-53,608 L-53,610 L-52,610 L-52,611 L-51,611 L-51,612 L-50,612 L-50,613 L-49,613 L-49,614 L-48,614 L-48,615 L-47,615 L-47,616 L-46,616 L-46,617 L-45,617 L-45,618 L-43,618 L-43,619 L-42,619 L-42,620 L-40,620 L-40,621 L-38,621 L-38,622 L-35,622 L-35,623 L-32,623 L-32,624 L-28,624 L-28,625 L28,625 L28,587 L104,587 L104,611 L105,611 L105,614 L104,614 L104,624 L105,624 L105,625 L369,625 L369,559 L370,559 L370,552 L371,552 L371,549 Z"/>
<path transform="translate(618,419)" fill="#000000" d="M0,0 L1,0 L1,1 L34,1 L34,0 L35,0 L35,1 L36,1 L36,67 L96,67 L96,103 L36,103 L36,227 L0,227 L0,103 L-61,103 L-61,67 L0,67 L0,65 L-1,65 L-1,64 L0,64 Z"/>
</svg>